<svg version="1.0" xmlns="http://www.w3.org/2000/svg" width="94.667" height="94.667" viewBox="0 0 71 71"><path d="M27 1.2c0 .5-.4.7-.8.4C24.4.5 14.3 6.4 9.8 11 4.3 16.8 1 23.5.3 30.5c-.6 5.9.8 7.8 4.4 6.4 1.3-.5 2.3-1.2 2.4-1.6.6-4.8.8-6.1 1.2-8C10.7 17.1 21.8 8.4 33.5 7.5c3.1-.3 6.1-.7 6.6-1 1.4-.9 1.1-4.1-.5-5.4C38-.3 27-.1 27 1.2zm22.2 5c-1.9 1.9-1.5 2.6 4.1 8.1 7.3 7.1 9.2 11.4 9.2 20.7 0 5.8-.5 8.6-2.2 12.1-2.9 5.7-2.9 7.6-.2 8.4 3 1 5.6-2 8.3-9.6 3.7-10.6 2.4-20.4-4-30C60.6 10.2 54.7 5 52 5c-.9 0-2.1.5-2.8 1.2z"/><path d="M27.5 16.8c-7.7 3.7-11.6 10-11.7 18.5-.1 4.5 1.8 6.9 4.8 6.1 1.8-.5 2.2-1.5 2.6-6.3.5-6.6 3.5-10.8 8.3-11.7 1.6-.3 3.2-.7 3.5-.9.4-.3 2.2 0 4.1.5 1.8.6 4.2.7 5.1.4 2.5-.8 2.3-5.1-.3-6.5-3.3-1.7-12.9-1.8-16.4-.1zm21.9 12.7c-1.3 1.3-2.4 7.6-1.2 6.9 1.3-.8-.4 2.9-2.9 6.3-3.1 4-8.8 5.7-14.4 4.2-2.9-.8-4.3-.2-5.2 2.3-1.7 4.7 10.2 7.3 17.8 3.9 8.8-4 14.2-14.7 11.2-22.3-.7-2-4-2.8-5.3-1.3z"/><path d="M4 47c-2.4 4.6 6.5 15 16.9 19.8 4.3 2 7.5 2.7 13.5 2.9 4.4.1 8.4-.1 9-.5 1.1-.7 3.2-1.2 5.4-1.4.6-.1 1.2-.5 1.2-.9s.9-1.1 2-1.4c2.3-.7 2.5-2.4.7-4.9-1.3-1.7-1.6-1.7-7.9.2-6.8 2.1-14.1 2.3-18.8.4-1.4-.5-2.8-1-3.3-1.1C21 59.9 11 50.4 11 48.9c0-1.3-3-3.9-4.5-3.9-.8 0-1.9.9-2.5 2z"/></svg>